<?xml version="1.0" encoding="utf-8"?>
<!-- Generator: Adobe Illustrator 27.0.0, SVG Export Plug-In . SVG Version: 6.00 Build 0)  -->
<svg version="1.1" id="Layer_2_00000119801945623174452670000015097280749747114627_"
	 xmlns="http://www.w3.org/2000/svg" xmlns:xlink="http://www.w3.org/1999/xlink" x="0px" y="0px" viewBox="0 0 500 500"
	 style="enable-background:new 0 0 500 500;" xml:space="preserve">
<style type="text/css">
	.st0{fill:#E8B9AA;}
	.st1{fill:none;stroke:#FFFFFF;stroke-width:8;stroke-linecap:round;stroke-linejoin:round;}
	.st2{fill:none;stroke:#FFFFFF;stroke-width:8;stroke-miterlimit:10;}
	.st3{fill:#E8B8AA;stroke:#FFFFFF;stroke-width:8;stroke-linecap:round;stroke-linejoin:round;}
</style>
<circle class="st0" cx="250" cy="250" r="250"/>
<path class="st1" d="M377.9,140.7h15.3c12.6,0,22.8,10.2,22.8,22.8v180.1c0,12.6-10.2,22.8-22.8,22.8H106.8
	c-12.6,0-22.8-10.2-22.8-22.8V163.5c0-12.6,10.2-22.8,22.8-22.8H119"/>
<path class="st2" d="M73.1,366.5h353.8c4.9,0,9,4,9,9v5.7c0,4.9-4,9-9,9H73.1c-4.9,0-8.9-4-8.9-9v-5.7
	C64.2,370.5,68.2,366.5,73.1,366.5z"/>
<path class="st2" d="M252.7,234.4l-29.1,13.4c-6.6,3.1-15.4-2.4-18.2-8.5L138.5,142c-2.8-6,0.4-13.5,7-16.5l38.7-1.1
	c10.6-0.3,20.2,4.6,25.3,12.9l50.2,80.6C262.5,223.9,259.3,231.4,252.7,234.4z"/>
<path class="st2" d="M242.6,234.4l29.1,13.4c6.6,3.1,15.4-2.4,18.2-8.5l66.9-97.4c2.8-6-0.4-13.5-7-16.5l-38.7-1.1
	c-10.6-0.3-20.2,4.6-25.3,12.9l-50.2,80.6C232.9,223.9,236,231.4,242.6,234.4z"/>
<path class="st3" d="M250,188.7L250,188.7c41.3,0,74.8,33.5,74.8,74.8v0c0,41.3-33.5,74.8-74.8,74.8h0c-41.3,0-74.8-33.5-74.8-74.8
	v0C175.2,222.2,208.7,188.7,250,188.7z"/>
<path class="st3" d="M257,223.6l8.2,16.6c1.1,2.3,3.4,3.9,5.9,4.3l18.4,2.7c6.4,0.9,9,8.9,4.4,13.4l-13.3,12.9
	c-1.9,1.8-2.7,4.4-2.3,7l3.1,18.3c1.1,6.4-5.6,11.3-11.4,8.3l-16.4-8.6c-2.3-1.2-5-1.2-7.3,0l-16.4,8.6c-5.8,3-12.5-1.9-11.4-8.3
	l3.1-18.3c0.4-2.6-0.4-5.2-2.3-7l-13.3-12.9c-4.7-4.5-2.1-12.5,4.4-13.4l18.4-2.7c2.6-0.4,4.8-2,5.9-4.3l8.2-16.6
	C245.8,217.7,254.2,217.7,257,223.6z"/>
</svg>
